# File created by Blade
# Date/Time:  Tue Apr 07 21:25:57 2015
# Frame Rate: 120.000 fps
#------------------------------------------------------
:FULLY-SPECIFIED
:DEGREES
742
root -8.993942 32.838975 3.388355 13.391862 -44.430120 1.990613
Spine -10.864822 5.722982 -1.328899
Head 3.814919 19.577481 -6.434865
LeftShoulder -27.543147 42.615088 10.285013
LeftArm 60.764734 -44.797497 -70.924845
LeftForeArm 4.695681 -0.000000 9.189221
LeftHand 8.948407 -0.000000 7.742935
LeftHandThumb1 -26.253704 0.000000 33.147579
RightShoulder -4.486265 3.394051 -27.195225
RightArm 18.357045 8.061041 56.542757
RightForeArm -7.948531 0.000000 7.087025
RightHand 9.015968 -0.000000 -2.160231
RightHandThumb1 -24.326973 -0.000000 -32.862282
LeftUpLeg -29.784921 -8.816890 0.951911
LeftLeg -1.583938 -0.000000 0.000000
LeftFoot 18.110586 2.385077 -40.509600
LeftToeBase -1.036862 -0.000000 0.000000
RightUpLeg -12.064089 2.088479 7.123277
RightLeg 15.542325 -0.000000 -0.000000
RightFoot -11.770062 -15.666923 7.646818
RightToeBase -15.261902 -0.000000 0.000000
743
root -8.911955 32.880071 3.300068 13.166082 -43.571769 2.225264
Spine -10.797462 5.713131 -1.655049
Head 3.916765 18.992088 -5.973938
LeftShoulder -27.343287 42.658898 10.554127
LeftArm 61.035524 -44.933293 -70.847392
LeftForeArm 4.843379 0.000000 9.566426
LeftHand 9.204390 -0.000000 8.011258
LeftHandThumb1 -26.253704 0.000000 33.147579
RightShoulder -4.548117 3.310412 -27.033640
RightArm 18.343861 8.231592 56.716078
RightForeArm -7.953272 0.000000 7.214649
RightHand 9.185791 -0.000000 -2.266150
RightHandThumb1 -24.326973 -0.000000 -32.862282
LeftUpLeg -29.311257 -9.005222 1.033438
LeftLeg -1.128660 -0.000000 0.000000
LeftFoot 16.196378 2.133689 -39.721680
LeftToeBase -1.539035 -0.000000 0.000000
RightUpLeg -12.260871 1.846405 7.064504
RightLeg 15.544775 -0.000000 -0.000000
RightFoot -11.541934 -16.029789 7.930679
RightToeBase -15.232582 -0.000000 0.000000
744
root -8.833767 32.928332 3.217691 12.972955 -42.664950 2.478767
Spine -10.780891 5.610501 -1.979020
Head 4.018933 18.414931 -5.560654
LeftShoulder -27.164624 42.666091 10.789888
LeftArm 61.299460 -45.135052 -70.812407
LeftForeArm 5.097428 -0.000000 9.940428
LeftHand 9.345591 -0.000000 8.071609
LeftHandThumb1 -26.253704 0.000000 33.147579
RightShoulder -4.602022 3.061557 -26.914680
RightArm 18.463758 8.630248 57.032010
RightForeArm -8.158474 -0.000000 7.397982
RightHand 9.230713 -0.000000 -2.377579
RightHandThumb1 -24.326973 -0.000000 -32.862282
LeftUpLeg -28.853402 -9.209516 1.062353
LeftLeg -0.583406 -0.000000 0.000000
LeftFoot 13.907451 2.278539 -39.076192
LeftToeBase -2.657942 -0.000000 0.000000
RightUpLeg -12.450656 1.597029 6.965828
RightLeg 15.464986 -0.000000 -0.000000
RightFoot -11.226972 -16.344444 8.249228
RightToeBase -15.349603 -0.000000 0.000000
745
root -8.762970 32.981167 3.144595 12.739332 -41.741477 2.796991
Spine -10.802659 5.411065 -2.345565
Head 4.184861 17.894127 -5.147342
LeftShoulder -27.117983 42.770322 10.844295
LeftArm 61.645157 -45.364704 -70.659392
LeftForeArm 5.219700 -0.000000 10.203746
LeftHand 9.403513 -0.000000 8.241342
LeftHandThumb1 -26.253704 0.000000 33.147579
RightShoulder -4.620226 2.944239 -26.823541
RightArm 18.491157 8.945354 57.352250
RightForeArm -8.235680 -0.000000 7.570585
RightHand 9.365853 0.000000 -2.103048
RightHandThumb1 -24.326973 -0.000000 -32.862282
LeftUpLeg -28.285145 -9.665409 1.166931
LeftLeg -0.202470 -0.000000 0.000000
LeftFoot 11.464129 2.872346 -38.773247
LeftToeBase -4.813477 -0.000000 0.000000
RightUpLeg -12.646101 1.099055 6.800757
RightLeg 15.449781 -0.000000 -0.000000
RightFoot -10.892280 -16.268036 8.575771
RightToeBase -15.524112 -0.000000 0.000000
746
root -8.698865 33.039559 3.076100 12.558345 -40.805375 3.063372
Spine -10.886353 5.248571 -2.699005
Head 4.468586 17.324392 -4.667422
LeftShoulder -26.872323 42.784308 11.119764
LeftArm 61.728315 -45.512064 -70.367011
LeftForeArm 5.018073 -0.000000 10.448515
LeftHand 9.555090 -0.000000 8.497834
LeftHandThumb1 -26.253704 0.000000 33.147579
RightShoulder -4.669319 2.725112 -26.712039
RightArm 18.497359 9.121821 57.584295
RightForeArm -8.282135 0.000000 7.811840
RightHand 9.611611 -0.000000 -2.117738
RightHandThumb1 -24.326973 -0.000000 -32.862282
LeftUpLeg -27.718231 -10.295839 1.407228
LeftLeg 0.214072 -0.000000 -0.000000
LeftFoot 8.758059 3.738368 -38.541468
LeftToeBase -5.713151 -0.000000 0.000000
RightUpLeg -12.753842 0.791779 6.630513
RightLeg 15.272452 -0.000000 -0.000000
RightFoot -10.511004 -16.325274 8.924296
RightToeBase -15.659318 -0.000000 0.000000
747
root -8.634981 33.101728 3.000818 12.460161 -39.837384 3.273598
Spine -10.997125 5.010423 -3.002392
Head 4.754056 16.793460 -4.218346
LeftShoulder -26.606211 42.697711 11.448549
LeftArm 61.732462 -45.678492 -70.071124
LeftForeArm 5.003664 -0.000000 10.666541
LeftHand 9.621606 -0.000000 8.623648
LeftHandThumb1 -26.253704 0.000000 33.147579
RightShoulder -4.702058 2.584196 -26.616434
RightArm 18.496932 9.231173 57.780639
RightForeArm -8.316145 -0.000000 8.029272
RightHand 9.655669 0.000000 -1.928288
RightHandThumb1 -24.326973 -0.000000 -32.862282
LeftUpLeg -27.211554 -10.838352 1.629846
LeftLeg 0.702632 -0.000000 -0.000000
LeftFoot 6.178844 4.709490 -37.522832
LeftToeBase -6.460892 -0.000000 0.000000
RightUpLeg -12.915639 0.456308 6.485689
RightLeg 15.116636 -0.000000 -0.000000
RightFoot -10.056917 -16.244494 9.316084
RightToeBase -16.034414 -0.000000 0.000000
748
root -8.564326 33.167142 2.928302 12.475087 -38.868321 3.463074
Spine -11.219677 4.778813 -3.273075
Head 5.049245 16.261696 -3.841630
LeftShoulder -26.405146 42.663840 11.681934
LeftArm 61.844333 -45.769222 -69.682363
LeftForeArm 4.960312 -0.000000 10.687245
LeftHand 9.527312 -0.000000 8.963709
LeftHandThumb1 -26.253704 0.000000 33.147579
RightShoulder -4.755579 2.436459 -26.555699
RightArm 18.510129 9.273382 57.923578
RightForeArm -8.381945 -0.000000 8.180033
RightHand 9.650760 0.000000 -1.948741
RightHandThumb1 -24.326973 -0.000000 -32.862282
LeftUpLeg -26.809313 -11.349607 1.842141
LeftLeg 1.232692 -0.000000 -0.000000
LeftFoot 3.898729 5.805614 -35.937924
LeftToeBase -6.929895 -0.000000 0.000000
RightUpLeg -13.086981 0.351462 6.270134
RightLeg 14.811199 -0.000000 -0.000000
RightFoot -9.632483 -16.184301 9.855191
RightToeBase -16.234014 -0.000000 0.000000
749
root -8.494806 33.232422 2.866085 12.336562 -37.863461 3.735926
Spine -11.326532 4.512475 -3.598150
Head 5.352539 15.732977 -3.473222
LeftShoulder -26.127953 42.589311 11.981763
LeftArm 61.901879 -45.882216 -69.336111
LeftForeArm 4.907997 -0.000000 10.763181
LeftHand 9.567398 0.000000 9.085580
LeftHandThumb1 -26.253704 0.000000 33.147579
RightShoulder -4.817730 2.377576 -26.500432
RightArm 18.435563 9.338842 58.026603
RightForeArm -8.672089 0.000000 8.324350
RightHand 9.712237 -0.000000 -2.076956
RightHandThumb1 -24.326973 -0.000000 -32.862282
LeftUpLeg -26.269151 -11.755679 1.880200
LeftLeg 1.799817 -0.000000 -0.000000
LeftFoot 1.993002 6.957569 -34.092742
LeftToeBase -7.905290 -0.000000 0.000000
RightUpLeg -13.255180 -0.206070 5.992871
RightLeg 14.773299 -0.000000 -0.000000
RightFoot -9.187104 -15.526638 10.306328
RightToeBase -16.698423 -0.000000 0.000000
750
root -8.432064 33.299368 2.801114 12.323118 -36.817215 3.859875
Spine -11.462940 4.200923 -3.784388
Head 5.647939 15.269154 -3.149726
LeftShoulder -25.885492 42.453629 12.264886
LeftArm 61.860691 -45.898323 -68.853475
LeftForeArm 4.801727 0.000000 10.777808
LeftHand 9.620960 -0.000000 9.421569
LeftHandThumb1 -26.253704 0.000000 33.147579
RightShoulder -4.875795 2.322920 -26.440334
RightArm 18.394668 9.356517 58.042875
RightForeArm -8.965070 0.000000 8.367840
RightHand 9.870106 0.000000 -2.295746
RightHandThumb1 -24.326973 -0.000000 -32.862282
LeftUpLeg -25.750372 -11.975697 1.983502
LeftLeg 2.384342 -0.000000 -0.000000
LeftFoot 0.526315 7.960147 -32.584411
LeftToeBase -8.418069 -0.000000 0.000000
RightUpLeg -13.317467 -0.447267 5.776099
RightLeg 14.494391 -0.000000 -0.000000
RightFoot -8.712128 -15.063262 10.946724
RightToeBase -17.006524 -0.000000 0.000000
751
root -8.369491 33.367113 2.736367 12.356759 -35.746322 3.946525
Spine -11.626915 3.878511 -3.928061
Head 5.960713 14.791703 -2.845994
LeftShoulder -25.615349 42.299178 12.550429
LeftArm 61.856720 -45.933495 -68.398697
LeftForeArm 4.690750 0.000000 10.751024
LeftHand 9.680843 -0.000000 9.579779
LeftHandThumb1 -26.253704 0.000000 33.147579
RightShoulder -4.936629 2.331765 -26.411995
RightArm 18.267847 9.320298 58.004547
RightForeArm -9.156285 -0.000000 8.387393
RightHand 9.896916 -0.000000 -2.321313
RightHandThumb1 -24.326973 -0.000000 -32.862282
LeftUpLeg -25.255232 -12.044642 2.073597
LeftLeg 3.030588 -0.000000 -0.000000
LeftFoot -0.879746 8.939096 -31.177566
LeftToeBase -7.792878 -0.000000 0.000000
RightUpLeg -13.382224 -0.897226 5.578726
RightLeg 14.202015 -0.000000 -0.000000
RightFoot -8.076180 -14.261360 11.372319
RightToeBase -17.322886 -0.000000 0.000000
752
root -8.312843 33.433370 2.673585 12.385570 -34.693998 4.005468
Spine -11.801504 3.587541 -4.083375
Head 6.346592 14.324669 -2.452572
LeftShoulder -25.277572 42.218952 12.959248
LeftArm 61.968351 -45.963186 -68.139779
LeftForeArm 4.646760 -0.000000 10.668797
LeftHand 9.916840 -0.000000 9.686226
LeftHandThumb1 -26.253704 0.000000 33.147579
RightShoulder -4.964250 2.243745 -26.318515
RightArm 18.168778 9.367358 57.867284
RightForeArm -9.395629 -0.000000 8.384933
RightHand 9.768906 -0.000000 -2.774033
RightHandThumb1 -24.326973 -0.000000 -32.862282
LeftUpLeg -24.693758 -12.050373 2.164225
LeftLeg 3.601480 -0.000000 -0.000000
LeftFoot -1.941432 9.884128 -29.887981
LeftToeBase -7.859834 -0.000000 0.000000
RightUpLeg -13.409951 -1.382417 5.377749
RightLeg 13.927131 -0.000000 -0.000000
RightFoot -7.394389 -13.277585 11.752274
RightToeBase -17.836784 -0.000000 0.000000
753
root -8.261079 33.501129 2.613107 12.528472 -33.614044 3.950247
Spine -12.026816 3.267785 -4.112710
Head 6.681953 13.825297 -2.120487
LeftShoulder -24.998175 42.149995 13.276904
LeftArm 62.043306 -45.958115 -67.782900
LeftForeArm 4.603848 0.000000 10.603289
LeftHand 9.927374 -0.000000 9.920143
LeftHandThumb1 -26.253704 0.000000 33.147579
RightShoulder -5.038588 2.170025 -26.301552
RightArm 18.049470 9.345093 57.757834
RightForeArm -9.468533 -0.000000 8.355267
RightHand 10.025578 -0.000000 -2.863318
RightHandThumb1 -24.326973 -0.000000 -32.862282
LeftUpLeg -24.180699 -11.937617 2.331415
LeftLeg 4.220752 -0.000000 -0.000000
LeftFoot -2.745169 10.601267 -28.694950
LeftToeBase -8.280837 -0.000000 0.000000
RightUpLeg -13.347371 -1.509655 5.214513
RightLeg 13.416555 -0.000000 -0.000000
RightFoot -6.585056 -12.598768 12.105324
RightToeBase -18.790872 -0.000000 0.000000
